<svg width="271" height="241" viewBox="0 0 271 241" fill="none" xmlns="http://www.w3.org/2000/svg">
<path d="M214.141 241C236.769 241 254.062 221.118 254.062 197.964V68.8571H16.9375V197.964C16.9375 221.118 34.2307 241 56.8592 241H214.141ZM93.1562 103.286H177.844C180.09 103.286 182.244 104.193 183.832 105.807C185.42 107.421 186.312 109.61 186.312 111.893C186.312 114.176 185.42 116.365 183.832 117.979C182.244 119.593 180.09 120.5 177.844 120.5H93.1562C90.9102 120.5 88.7561 119.593 87.1679 117.979C85.5797 116.365 84.6875 114.176 84.6875 111.893C84.6875 109.61 85.5797 107.421 87.1679 105.807C88.7561 104.193 90.9102 103.286 93.1562 103.286ZM13.55 0C9.95632 0 6.50982 1.45091 3.9687 4.03356C1.42759 6.6162 0 10.119 0 13.7714L0 34.4286C0 38.081 1.42759 41.5838 3.9687 44.1664C6.50982 46.7491 9.95632 48.2 13.55 48.2H257.45C261.044 48.2 264.49 46.7491 267.031 44.1664C269.572 41.5838 271 38.081 271 34.4286V13.7714C271 10.119 269.572 6.6162 267.031 4.03356C264.49 1.45091 261.044 0 257.45 0H13.55Z" fill="white"/>
</svg>
