<?xml version="1.0" encoding="UTF-8"?>
<svg id="Capa_1" data-name="Capa 1" xmlns="http://www.w3.org/2000/svg" viewBox="0 0 438 419.97">
  <defs>
    <style>
      .cls-1 {
        fill: #33363a;
      }

      .cls-1, .cls-2, .cls-3, .cls-4, .cls-5, .cls-6, .cls-7, .cls-8 {
        stroke-width: 0px;
      }

      .cls-2 {
        fill: #5e5e5e;
      }

      .cls-3 {
        fill: #a7bbc1;
      }

      .cls-4 {
        fill: #fff;
      }

      .cls-5 {
        fill: #d8e5ea;
      }

      .cls-6 {
        fill: #ff8f8f;
      }

      .cls-7 {
        fill: #ff1a1a;
      }

      .cls-8 {
        fill: #303030;
      }
    </style>
  </defs>
  <path class="cls-8" d="m431.44,159.55c-3.4-10.5-12.45-18.15-23.36-19.69l-112.72-16.42-50.42-102.17c-4.86-9.85-14.93-16.11-25.94-16.11s-21.08,6.26-25.95,16.11l-50.41,102.17-112.73,16.42c-10.91,1.54-19.95,9.19-23.36,19.69-3.38,10.46-.57,21.98,7.33,29.65l81.58,79.48-19.28,112.3c-1.87,10.86,2.6,21.82,11.52,28.31,8.96,6.44,20.74,7.32,30.49,2.17l100.81-52.97,100.81,52.97c4.23,2.24,8.85,3.34,13.46,3.34,6,0,11.98-1.84,17.02-5.51,8.92-6.49,13.37-17.45,11.51-28.31l-19.28-112.3,81.58-79.48c7.9-7.67,10.73-19.18,7.33-29.65Z"/>
  <path class="cls-2" d="m218.99,5.16c-11.01,0-21.08,6.26-25.94,16.11l-50.41,102.17-112.73,16.42c-10.91,1.54-19.95,9.19-23.36,19.69-3.38,10.47-.57,21.98,7.33,29.65l81.58,79.48-19.28,112.3c-1.87,10.85,2.6,21.82,11.52,28.31,8.96,6.44,20.74,7.32,30.49,2.17l100.81-52.97V5.16Z"/>
  <path class="cls-1" d="m333.28,419.97c-5.52,0-11.02-1.36-15.88-3.95l-98.4-51.7-98.41,51.71c-4.86,2.57-10.35,3.94-15.86,3.94-7.22,0-14.15-2.24-20.05-6.48-10.61-7.72-15.81-20.5-13.59-33.38l18.82-109.62L10.27,192.9c-9.21-8.95-12.6-22.66-8.64-34.93,4.06-12.49,14.62-21.39,27.56-23.22l110.02-16.02,49.21-99.74c5.7-11.54,17.7-18.99,30.58-18.99s24.89,7.46,30.57,18.99l49.21,99.74,110.04,16.03c12.92,1.83,23.48,10.72,27.53,23.21,3.98,12.27.59,25.98-8.64,34.94l-79.64,77.58,18.82,109.62c2.21,12.88-2.99,25.66-13.56,33.36-5.86,4.25-12.79,6.49-20.06,6.49Zm-114.28-66.64c.83,0,1.65.2,2.4.59l100.81,52.97c7.88,4.18,17.89,3.43,25.05-1.77,7.37-5.36,10.99-14.28,9.46-23.25l-19.28-112.3c-.29-1.68.27-3.39,1.49-4.57l81.58-79.48c6.43-6.25,8.79-15.81,6.02-24.36-2.82-8.7-10.17-14.89-19.17-16.17l-112.74-16.42c-1.68-.24-3.14-1.3-3.89-2.83l-50.42-102.17c-3.96-8.04-12.33-13.23-21.31-13.23s-17.35,5.19-21.32,13.23l-50.41,102.17c-.75,1.53-2.21,2.58-3.89,2.83l-112.73,16.42c-9.02,1.28-16.37,7.47-19.2,16.18-2.76,8.55-.4,18.11,6.02,24.35l81.59,79.49c1.22,1.18,1.77,2.9,1.49,4.57l-19.28,112.3c-1.54,8.97,2.08,17.89,9.47,23.26,7.22,5.2,17.19,5.93,25.04,1.78l100.83-52.98c.75-.4,1.57-.6,2.4-.6Z"/>
  <path class="cls-6" d="m219,303.3c41.71,0,75.52-33.81,75.52-75.52s-33.81-75.52-75.52-75.52-75.52,33.81-75.52,75.52,33.81,75.52,75.52,75.52Z"/>
  <path class="cls-7" d="m294.52,227.78c0,31.94-33.81,57.85-75.52,57.85s-75.52-25.9-75.52-57.85,33.81-57.84,75.52-57.84,75.52,25.9,75.52,57.84Z"/>
  <path class="cls-4" d="m143.48,227.79c0,41.71,33.81,75.52,75.52,75.52s75.52-33.81,75.52-75.52h-151.04Z"/>
  <path class="cls-5" d="m219,285.65c41.7,0,75.52-25.9,75.52-57.85h-151.04c0,31.95,33.81,57.85,75.52,57.85Z"/>
  <path class="cls-1" d="m219,308.48c-44.49,0-80.69-36.19-80.69-80.69s36.2-80.68,80.69-80.68,80.69,36.2,80.69,80.68-36.2,80.69-80.69,80.69Zm0-151.04c-38.79,0-70.35,31.56-70.35,70.35s31.56,70.36,70.35,70.36,70.36-31.56,70.36-70.36-31.56-70.35-70.36-70.35Z"/>
  <path class="cls-1" d="m294.52,232.95h-151.04c-2.86,0-5.17-2.31-5.17-5.17s2.31-5.17,5.17-5.17h151.04c2.86,0,5.17,2.31,5.17,5.17s-2.31,5.17-5.16,5.17Z"/>
  <path class="cls-3" d="m219,261.41c13.79,0,24.97-11.18,24.97-24.97s-11.18-24.97-24.97-24.97-24.97,11.18-24.97,24.97,11.18,24.97,24.97,24.97Z"/>
  <path class="cls-4" d="m219,252.92c13.79,0,24.97-11.18,24.97-24.97s-11.18-24.97-24.97-24.97-24.97,11.18-24.97,24.97,11.18,24.97,24.97,24.97Z"/>
  <path class="cls-5" d="m201.34,245.61c-9.75-9.75-9.75-25.57,0-35.32,9.75-9.75,25.57-9.75,35.31,0"/>
  <path class="cls-1" d="m219,258.09c-8.05,0-15.62-3.13-21.31-8.82-11.75-11.75-11.75-30.87,0-42.62,5.69-5.69,13.26-8.83,21.31-8.83s15.62,3.14,21.31,8.83c11.75,11.75,11.75,30.87,0,42.62-5.69,5.69-13.26,8.82-21.31,8.82Zm0-49.94c-5.29,0-10.26,2.06-14,5.8-7.72,7.72-7.72,20.29,0,28.01,3.74,3.74,8.71,5.79,14,5.79s10.26-2.06,14-5.8c7.72-7.72,7.72-20.29,0-28.01-3.74-3.74-8.71-5.8-14-5.8Z"/>
  <path class="cls-1" d="m219,361.83c-2.85,0-5.17-2.31-5.17-5.17v-47.88c0-2.86,2.31-5.17,5.17-5.17s5.17,2.31,5.17,5.17v47.88c0,2.85-2.31,5.17-5.17,5.17Z"/>
</svg>