<svg width="438" height="420" viewBox="0 0 438 420" fill="none" xmlns="http://www.w3.org/2000/svg">
<path d="M431.436 159.549C428.034 149.049 418.988 141.401 408.075 139.858L295.358 123.443L244.941 21.2696C240.085 11.421 230.013 5.15723 218.997 5.15723C207.981 5.15723 197.912 11.4176 193.05 21.2696L142.636 123.443L29.9085 139.862C18.9959 141.405 9.95663 149.053 6.54408 159.552C3.16596 170.017 5.97589 181.529 13.8719 189.198L95.4565 268.678L76.176 380.982C74.3096 391.837 78.7725 402.801 87.6947 409.292C96.6514 415.735 108.439 416.613 118.184 411.458L218.997 358.486L319.81 411.458C324.043 413.703 328.664 414.802 333.271 414.802C339.27 414.802 345.248 412.959 350.293 409.292C359.208 402.801 363.667 391.84 361.804 380.982L342.524 268.678L424.105 189.198C432.005 181.525 434.832 170.017 431.436 159.549Z" fill="#FFAA00"/>
<path d="M218.994 5.15723C207.981 5.16411 197.912 11.4176 193.05 21.2696L142.636 123.44L29.9085 139.858C18.9959 141.401 9.95663 149.049 6.54408 159.549C3.16596 170.014 5.97589 181.525 13.8719 189.194L95.4565 268.675L76.176 380.979C74.3096 391.833 78.7725 402.797 87.6947 409.288C96.6514 415.731 108.439 416.609 118.184 411.454L218.994 358.482V5.15723Z" fill="#FFD00B"/>
<path d="M333.279 419.968C327.756 419.968 322.26 418.604 317.398 416.022L219.002 364.324L120.589 416.032C115.73 418.604 110.241 419.968 104.728 419.968C97.5066 419.968 90.5747 417.73 84.6828 413.491C74.0767 405.774 68.8769 392.991 71.0911 380.112L89.9101 270.487L10.2712 192.901C1.06315 183.954 -2.33218 170.239 1.63478 157.966C5.69472 145.473 16.2561 136.581 29.19 134.749L139.211 118.73L188.423 18.9912C194.119 7.45184 206.123 0 219.002 0C231.888 0 243.892 7.45528 249.577 18.9946L298.792 118.73L408.827 134.756C421.751 136.585 432.309 145.48 436.358 157.966C440.336 170.232 436.944 183.947 427.719 192.908L348.083 270.487L366.902 380.112C369.113 392.991 363.917 405.774 353.341 413.474C347.484 417.723 340.549 419.968 333.279 419.968ZM219.002 353.325C219.828 353.325 220.651 353.525 221.405 353.917L322.219 406.89C330.101 411.07 340.104 410.316 347.264 405.116C354.636 399.751 358.259 390.839 356.72 381.862L337.443 269.557C337.157 267.88 337.711 266.172 338.93 264.984L420.511 185.504C426.944 179.257 429.303 169.698 426.531 161.148C423.71 152.449 416.365 146.254 407.36 144.98L294.619 128.558C292.938 128.313 291.482 127.256 290.731 125.731L240.314 23.5607C236.35 15.5235 227.986 10.3306 219.002 10.3306C210.021 10.3306 201.653 15.5235 197.686 23.5642L147.273 125.734C146.522 127.26 145.065 128.317 143.385 128.561L30.657 144.98C21.6349 146.258 14.2898 152.453 11.4592 161.155C8.6975 169.705 11.0563 179.264 17.4751 185.5L99.0665 264.988C100.286 266.172 100.84 267.884 100.554 269.561L81.2737 381.865C79.731 390.839 83.357 399.751 90.74 405.123C97.9611 410.323 107.93 411.053 115.775 406.9L216.602 353.921C217.349 353.525 218.175 353.325 219.002 353.325Z" fill="#33363A"/>
<path d="M219.001 303.304C260.71 303.304 294.521 269.492 294.521 227.783C294.521 186.074 260.71 152.263 219.001 152.263C177.292 152.263 143.48 186.074 143.48 227.783C143.48 269.492 177.292 303.304 219.001 303.304Z" fill="#FF8F8F"/>
<path d="M294.521 227.783C294.521 259.728 260.709 285.634 219.001 285.634C177.293 285.634 143.48 259.732 143.48 227.783C143.48 195.844 177.289 169.941 219.001 169.941C260.706 169.941 294.521 195.84 294.521 227.783Z" fill="#FF1A1A"/>
<path d="M143.48 227.795C143.48 269.507 177.289 303.319 219.001 303.319C260.706 303.319 294.521 269.51 294.521 227.795H143.48Z" fill="white"/>
<path d="M219.001 285.646C260.706 285.646 294.521 259.744 294.521 227.795H143.48C143.48 259.741 177.293 285.646 219.001 285.646Z" fill="#D8E5EA"/>
<path d="M218.999 308.477C174.509 308.477 138.313 272.282 138.313 227.788C138.313 183.301 174.509 147.105 218.999 147.105C263.49 147.105 299.685 183.301 299.685 227.788C299.685 272.282 263.49 308.477 218.999 308.477ZM218.999 157.44C180.204 157.44 148.644 189 148.644 227.791C148.644 266.586 180.204 298.15 218.999 298.15C257.794 298.15 289.354 266.586 289.354 227.791C289.354 189 257.794 157.44 218.999 157.44Z" fill="#33363A"/>
<path d="M294.52 232.949H143.479C140.624 232.949 138.313 230.638 138.313 227.783C138.313 224.929 140.624 222.618 143.479 222.618H294.516C297.371 222.618 299.682 224.929 299.682 227.783C299.682 230.638 297.371 232.949 294.52 232.949Z" fill="#33363A"/>
<path d="M218.997 261.41C232.789 261.41 243.97 250.229 243.97 236.437C243.97 222.645 232.789 211.465 218.997 211.465C205.205 211.465 194.024 222.645 194.024 236.437C194.024 250.229 205.205 261.41 218.997 261.41Z" fill="#A7BBC1"/>
<path d="M218.997 252.924C232.789 252.924 243.97 241.743 243.97 227.951C243.97 214.159 232.789 202.979 218.997 202.979C205.205 202.979 194.024 214.159 194.024 227.951C194.024 241.743 205.205 252.924 218.997 252.924Z" fill="white"/>
<path d="M201.336 245.61C191.587 235.857 191.587 220.045 201.336 210.293C211.088 200.54 226.901 200.54 236.649 210.293" fill="#D8E5EA"/>
<path d="M218.999 258.089C210.951 258.089 203.383 254.956 197.69 249.267C185.941 237.514 185.941 218.395 197.687 206.646C203.379 200.954 210.948 197.82 218.999 197.82C227.05 197.82 234.616 200.957 240.308 206.646C252.057 218.395 252.057 237.518 240.308 249.267C234.616 254.956 227.047 258.089 218.999 258.089ZM218.999 208.151C213.706 208.151 208.734 210.21 204.994 213.953C197.274 221.677 197.274 234.243 204.994 241.967C208.73 245.703 213.706 247.762 218.999 247.762C224.288 247.762 229.261 245.703 233.001 241.963C240.724 234.243 240.724 221.674 233.001 213.953C229.261 210.21 224.288 208.151 218.999 208.151Z" fill="#33363A"/>
<path d="M219.001 361.825C216.147 361.825 213.836 359.515 213.836 356.66V308.778C213.836 305.923 216.147 303.612 219.001 303.612C221.856 303.612 224.167 305.923 224.167 308.778V356.657C224.167 359.511 221.856 361.825 219.001 361.825Z" fill="#33363A"/>
</svg>
