<svg width="300" height="271" viewBox="0 0 300 271" fill="none" xmlns="http://www.w3.org/2000/svg">
<path d="M53.7113 259.258C52.2488 267.279 60.4612 273.547 67.6985 269.97L150.01 229.215L232.302 269.97C239.539 273.547 247.751 267.279 246.289 259.276L230.727 173.827L296.763 113.2C302.951 107.527 299.763 97.1577 291.476 96.0377L199.64 83.4642L158.691 5.29573C157.911 3.7112 156.68 2.37246 155.141 1.43504C153.603 0.497617 151.82 0 150 0C148.18 0 146.397 0.497617 144.859 1.43504C143.32 2.37246 142.09 3.7112 141.31 5.29573L100.36 83.4823L8.5246 96.0557C0.255997 97.1758 -2.95019 107.545 3.21844 113.218L69.2735 173.845L53.7113 259.294V259.258ZM145.678 209.271L76.5671 243.487L89.5794 172.002C89.8842 170.357 89.7649 168.664 89.232 167.074C88.6992 165.483 87.769 164.043 86.5232 162.879L32.0367 112.838L108.01 102.433C109.583 102.204 111.076 101.611 112.359 100.705C113.642 99.7988 114.679 98.6064 115.379 97.23L149.972 31.1472L184.603 97.23C185.303 98.6064 186.339 99.7988 187.623 100.705C188.906 101.611 190.398 102.204 191.971 102.433L267.945 112.82L213.458 162.861C212.21 164.026 211.278 165.47 210.745 167.064C210.212 168.658 210.094 170.354 210.402 172.002L223.414 243.487L154.303 209.271C152.967 208.607 151.485 208.261 149.981 208.261C148.478 208.261 147.015 208.607 145.678 209.271Z" fill="#F26674"/>
</svg>
