<svg width="182" height="210" viewBox="0 0 182 210" fill="none" xmlns="http://www.w3.org/2000/svg">
<path d="M56 77C57.8565 77 59.637 77.7375 60.9497 79.0503C62.2625 80.363 63 82.1435 63 84V168C63 169.857 62.2625 171.637 60.9497 172.95C59.637 174.263 57.8565 175 56 175C54.1435 175 52.363 174.263 51.0503 172.95C49.7375 171.637 49 169.857 49 168V84C49 82.1435 49.7375 80.363 51.0503 79.0503C52.363 77.7375 54.1435 77 56 77ZM91 77C92.8565 77 94.637 77.7375 95.9498 79.0503C97.2625 80.363 98 82.1435 98 84V168C98 169.857 97.2625 171.637 95.9498 172.95C94.637 174.263 92.8565 175 91 175C89.1435 175 87.363 174.263 86.0503 172.95C84.7375 171.637 84 169.857 84 168V84C84 82.1435 84.7375 80.363 86.0503 79.0503C87.363 77.7375 89.1435 77 91 77ZM133 84C133 82.1435 132.263 80.363 130.95 79.0503C129.637 77.7375 127.857 77 126 77C124.143 77 122.363 77.7375 121.05 79.0503C119.737 80.363 119 82.1435 119 84V168C119 169.857 119.737 171.637 121.05 172.95C122.363 174.263 124.143 175 126 175C127.857 175 129.637 174.263 130.95 172.95C132.263 171.637 133 169.857 133 168V84Z" fill="white"/>
<path d="M182 42C182 45.713 180.525 49.274 177.899 51.8995C175.274 54.525 171.713 56 168 56H161V182C161 189.426 158.05 196.548 152.799 201.799C147.548 207.05 140.426 210 133 210H49C41.5739 210 34.452 207.05 29.201 201.799C23.95 196.548 21 189.426 21 182V56H14C10.287 56 6.72601 54.525 4.1005 51.8995C1.475 49.274 0 45.713 0 42V28C0 24.287 1.475 20.726 4.1005 18.1005C6.72601 15.475 10.287 14 14 14H63C63 10.287 64.475 6.72601 67.1005 4.10051C69.726 1.475 73.287 0 77 0L105 0C108.713 0 112.274 1.475 114.899 4.10051C117.525 6.72601 119 10.287 119 14H168C171.713 14 175.274 15.475 177.899 18.1005C180.525 20.726 182 24.287 182 28V42ZM36.652 56L35 56.826V182C35 185.713 36.475 189.274 39.1005 191.899C41.726 194.525 45.287 196 49 196H133C136.713 196 140.274 194.525 142.899 191.899C145.525 189.274 147 185.713 147 182V56.826L145.348 56H36.652ZM14 42H168V28H14V42Z" fill="white"/>
</svg>
