<svg width="143" height="142" viewBox="0 0 143 142" fill="none" xmlns="http://www.w3.org/2000/svg">
<path fill-rule="evenodd" clip-rule="evenodd" d="M58.492 106.322C64.8876 106.322 71.2206 105.062 77.1293 102.614C83.038 100.167 88.4069 96.5795 92.9292 92.0572C97.4516 87.5348 101.039 82.166 103.486 76.2572C105.934 70.3485 107.194 64.0155 107.194 57.6199C107.194 51.2243 105.934 44.8914 103.486 38.9826C101.039 33.0739 97.4516 27.705 92.9292 23.1827C88.4069 18.6603 83.038 15.073 77.1293 12.6255C71.2206 10.178 64.8876 8.91831 58.492 8.91831C45.5755 8.91831 33.1881 14.0494 24.0548 23.1827C14.9214 32.316 9.79039 44.7035 9.79039 57.6199C9.79039 70.5364 14.9214 82.9238 24.0548 92.0572C33.1881 101.19 45.5755 106.322 58.492 106.322ZM116.048 57.6199C116.048 72.8848 109.984 87.5246 99.1906 98.3185C88.3966 109.112 73.7569 115.176 58.492 115.176C43.2271 115.176 28.5874 109.112 17.7934 98.3185C6.99951 87.5246 0.935547 72.8848 0.935547 57.6199C0.935547 42.355 6.99951 27.7153 17.7934 16.9214C28.5874 6.12744 43.2271 0.0634766 58.492 0.0634766C73.7569 0.0634766 88.3966 6.12744 99.1906 16.9214C109.984 27.7153 116.048 42.355 116.048 57.6199Z" fill="#FFFBFB"/>
<path d="M92.5306 104.031C92.7904 104.386 93.0796 104.725 93.3984 105.05L127.49 139.141C129.15 140.802 131.402 141.736 133.751 141.737C136.1 141.738 138.353 140.806 140.015 139.145C141.676 137.485 142.61 135.233 142.611 132.884C142.612 130.535 141.679 128.282 140.019 126.62L105.928 92.529C105.612 92.2084 105.271 91.9124 104.91 91.6436C101.44 96.3833 97.2654 100.564 92.5306 104.04V104.031Z" fill="#FFFBFB"/>
<path fill-rule="evenodd" clip-rule="evenodd" d="M58.4919 26.6289C59.6662 26.6289 60.7923 27.0954 61.6226 27.9257C62.4529 28.756 62.9194 29.8821 62.9194 31.0563V53.1934H85.0564C86.2307 53.1934 87.3568 53.6599 88.1871 54.4902C89.0174 55.3205 89.4839 56.4466 89.4839 57.6208C89.4839 58.7951 89.0174 59.9212 88.1871 60.7515C87.3568 61.5818 86.2307 62.0483 85.0564 62.0483H62.9194V84.1854C62.9194 85.3596 62.4529 86.4857 61.6226 87.316C60.7923 88.1463 59.6662 88.6128 58.4919 88.6128C57.3177 88.6128 56.1916 88.1463 55.3613 87.316C54.531 86.4857 54.0645 85.3596 54.0645 84.1854V62.0483H31.9274C30.7532 62.0483 29.6271 61.5818 28.7968 60.7515C27.9665 59.9212 27.5 58.7951 27.5 57.6208C27.5 56.4466 27.9665 55.3205 28.7968 54.4902C29.6271 53.6599 30.7532 53.1934 31.9274 53.1934H54.0645V31.0563C54.0645 29.8821 54.531 28.756 55.3613 27.9257C56.1916 27.0954 57.3177 26.6289 58.4919 26.6289Z" fill="#FFFBFB"/>
</svg>
